@startuml

class Steve{
- Vida vida
+ Agarrar(Item)
}

class Animal{
- Vida vida
+ Morir() : Item
}

class Cubo{
- Item Contenido
+ Romper() : Item
}

class Mounstruo{
- Vida vida
+ Morir() : Item
}

class Herramienta{
-Utilidad utilidad
+ Atacar()
}

class Item
class Usuario
class Vida
class Utilidad

class Esqueleto
class Zombie
class Creeper
class Araña

class Pico
class Espada
class Hacha

class Madera
class Tierra
class Piedra

class Diamante 
class Carbon
class Esmeralda
class Redstone
class Hierro

class Pollo
class Vaca
class Cerdo
class Lobo
class Obeja
class Abeja
class Gato

class Comida{
+ Comer()
}
class Chuleta
class Patata
class Manzana

Zombie --|> Mounstruo
Esqueleto --|> Mounstruo
Araña --|> Mounstruo
Creeper --|> Mounstruo
Tierra --|> Cubo
Piedra --|> Cubo
Madera --|> Cubo
Espada --|> Herramienta
Pico --|> Herramienta
Hacha --|> Herramienta
Redstone --|> Cubo
Diamante --|> Cubo
Hierro --|> Cubo
Carbon --|> Cubo
Esmeralda --|> Cubo
Pollo --|> Animal
Vaca --|> Animal
Cerdo --|> Animal
Lobo --|> Animal
Obeja --|> Animal
Abeja --|> Animal
Gato --|> Animal
Herramienta --|> Item
Chuleta --|> Comida
Manzana --|> Comida
Patata --|> Comida
Comida --|> Item

Steve "1" o-- "*" Cubo
Steve "1" o-- "*" Herramienta
Steve "1" o-- "*" Animal
Steve "1" o-- "*" Mounstruo
Usuario o-- Steve

Steve *-- Vida
Animal *-- Vida
Animal *-- Item
Mounstruo *-- Vida
Mounstruo *-- Item
Cubo *-- Item
Herramienta *-- Utilidad

@enduml